<?xml version="1.0" encoding="UTF-8" standalone="no"?>
<!-- Created with Inkscape (http://www.inkscape.org/) -->

<svg
   width="210mm"
   height="297mm"
   viewBox="0 0 210 297"
   version="1.1"
   id="svg1"
   xml:space="preserve"
   inkscape:version="1.3 (0e150ed6c4, 2023-07-21)"
   sodipodi:docname="inkscape marketplacetracker logo.svg"
   xmlns:inkscape="http://www.inkscape.org/namespaces/inkscape"
   xmlns:sodipodi="http://sodipodi.sourceforge.net/DTD/sodipodi-0.dtd"
   xmlns:xlink="http://www.w3.org/1999/xlink"
   xmlns="http://www.w3.org/2000/svg"
   xmlns:svg="http://www.w3.org/2000/svg"><sodipodi:namedview
     id="namedview1"
     pagecolor="#ffffff"
     bordercolor="#000000"
     borderopacity="0.25"
     inkscape:showpageshadow="2"
     inkscape:pageopacity="0.0"
     inkscape:pagecheckerboard="0"
     inkscape:deskcolor="#d1d1d1"
     inkscape:document-units="mm"
     inkscape:zoom="1.0716961"
     inkscape:cx="397.03419"
     inkscape:cy="561.25984"
     inkscape:window-width="3440"
     inkscape:window-height="1380"
     inkscape:window-x="0"
     inkscape:window-y="32"
     inkscape:window-maximized="1"
     inkscape:current-layer="layer1" /><defs
     id="defs1"><linearGradient
       id="linearGradient6"
       inkscape:collect="always"><stop
         style="stop-color:#6310a6;stop-opacity:1;"
         offset="0"
         id="stop7" /><stop
         style="stop-color:#3d1c99;stop-opacity:1;"
         offset="1"
         id="stop8" /></linearGradient><radialGradient
       inkscape:collect="always"
       xlink:href="#linearGradient6"
       id="radialGradient8"
       cx="146.18137"
       cy="164.70432"
       fx="146.18137"
       fy="164.70432"
       r="91.911407"
       gradientTransform="matrix(-1.7686412,1.078223,-0.92672574,-1.5201749,515.95517,195.86152)"
       gradientUnits="userSpaceOnUse" /></defs><g
     inkscape:label="Layer 1"
     inkscape:groupmode="layer"
     id="layer1"><path
       style="fill:url(#radialGradient8);fill-opacity:1;stroke:none"
       d="m 101.15325,244.77545 c -3.339475,-0.45977 -5.403446,-0.90162 -7.267407,-1.55579 -4.860157,-1.70568 -12.958581,-5.80645 -28.495991,-14.4294 -3.115137,-1.72883 -9.450599,-5.22688 -14.078804,-7.77344 -10.604672,-5.83496 -10.106444,-5.55601 -13.738613,-7.69192 l -3.058141,-1.79836 7.27233,-7.14446 c 3.999782,-3.92945 12.84621,-12.81118 19.658729,-19.73716 6.991126,-7.10757 12.502639,-12.46465 12.653261,-12.29873 0.429327,0.47295 13.328624,20.2692 18.750032,28.77524 6.441276,10.10618 10.085714,15.62263 11.099464,16.80083 1.69624,1.9714 3.36288,2.56019 6.54502,2.31224 5.69273,-0.44357 10.64797,-1.54376 12.75939,-2.83291 1.20377,-0.73497 2.74627,-2.91174 5.22943,-7.37977 0.93984,-1.69107 2.82161,-4.93779 4.18171,-7.21492 1.3601,-2.27714 2.61855,-4.3912 2.79656,-4.69793 0.17801,-0.30672 1.06688,-1.7934 1.97526,-3.30372 1.78562,-2.96886 2.83124,-4.80825 4.59669,-8.08628 0.62316,-1.15705 2.11206,-3.77862 3.30868,-5.82571 1.19662,-2.04709 4.03294,-6.99894 6.30294,-11.00412 2.27,-4.00518 4.29073,-7.38914 4.4905,-7.51992 0.2062,-0.13499 0.22331,-0.24418 0.0396,-0.25258 -0.178,-0.008 -0.085,-0.15415 0.20662,-0.32447 0.29164,-0.17033 0.63089,-0.7106 0.75387,-1.20061 0.12299,-0.49001 0.33565,-0.96521 0.47259,-1.056 0.13694,-0.0908 0.63514,-0.85687 1.10712,-1.70241 1.64073,-2.93934 2.393,-4.29965 3.44543,-6.23027 0.58222,-1.06805 1.16545,-2.08755 1.29606,-2.26556 0.13062,-0.178 0.60242,-0.97904 1.04846,-1.78008 3.17826,-5.70781 5.22149,-9.32618 5.60821,-9.9316 0.54473,-0.8528 1.19365,-1.98107 3.22288,-5.60363 1.81749,-3.24455 2.6209,-4.20746 3.51051,-4.20746 0.97696,0 2.9443,1.49245 3.98098,3.02002 l 0.91568,1.34927 -0.03,30.42316 -0.03,30.42316 -0.88815,3.07468 c -1.20262,4.1633 -3.32982,8.45996 -5.45922,11.02692 -2.72416,3.28391 -4.3146,4.36618 -14.95355,10.17562 -0.71203,0.38881 -2.60539,1.40515 -4.20746,2.25854 -1.60207,0.85339 -3.27696,1.79849 -3.72198,2.10022 -0.98496,0.66781 -8.35266,4.77887 -12.7842,7.13337 -1.78008,0.94576 -5.50115,2.98725 -8.26904,4.53664 -2.76789,1.54938 -6.19049,3.43799 -7.60579,4.1969 -3.4164,1.83194 -5.7297,3.11134 -7.54912,4.17515 -1.98158,1.15862 -4.92852,2.20163 -7.32286,2.59178 -2.46659,0.40192 -6.50594,0.64918 -7.76762,0.47547 z M 15.609064,215.40968 c -1.057228,-0.58667 -1.99868,-2.13994 -2.001186,-3.30168 -0.0024,-1.12189 0.720931,-2.29606 4.67476,-7.58824 1.529398,-2.04709 3.461472,-4.66866 4.293498,-5.82571 0.832025,-1.15705 3.133987,-4.28837 5.11547,-6.95849 1.981483,-2.67012 6.795679,-9.27751 10.698213,-14.68309 11.349221,-15.72034 13.327657,-18.44445 16.132657,-22.21309 1.457405,-1.95808 4.800176,-6.59069 7.42838,-10.29469 2.628204,-3.70399 4.988757,-6.81519 5.245674,-6.91378 0.256916,-0.0986 0.683084,-2e-5 0.947039,0.21904 0.263956,0.21907 3.122521,4.34977 6.352366,9.17934 3.229846,4.82958 8.836971,13.15033 12.460277,18.49057 9.151286,13.48768 22.634108,33.77046 25.922678,38.99656 l 2.74731,4.36595 -1.53911,1.39345 c -0.84651,0.7664 -1.72374,1.35047 -1.9494,1.29794 -0.48155,-0.1121 -11.12944,-16.28144 -26.278056,-39.90454 -6.38286,-9.95358 -9.567449,-14.54385 -10.170654,-14.66002 -0.324939,-0.0626 -2.958489,2.52067 -7.092045,6.95659 -9.503837,10.19902 -16.873868,17.83077 -35.100074,36.34651 -5.694789,5.78526 -11.150153,11.44265 -12.123032,12.57198 -2.470302,2.86755 -3.966785,3.52313 -5.764765,2.5254 z M 120.99476,204.60067 c -1.07415,-1.14989 -6.08328,-8.45273 -11.77774,-17.17084 -2.47699,-3.79222 -8.36769,-12.74925 -13.090448,-19.90452 -4.72276,-7.15527 -9.674615,-14.68353 -11.004123,-16.72947 -1.329507,-2.04595 -4.204507,-6.34241 -6.388888,-9.5477 l -3.971603,-5.8278 0.993489,-0.89946 c 0.546419,-0.49471 1.137996,-0.81015 1.314616,-0.701 0.444438,0.27468 15.624034,23.29531 17.783813,26.97006 0.273509,0.46536 2.037484,3.17639 3.919946,6.02452 1.882458,2.84812 4.948938,7.58152 6.814388,10.51865 1.86545,2.93712 5.76532,9.05412 8.66637,13.59332 5.71402,8.94056 8.42144,13.48842 8.42144,14.14614 0,0.69584 -0.80026,0.47123 -1.68126,-0.4719 z m 4.05786,-12.46055 c -0.47742,-0.75653 -1.90548,-2.97758 -3.17348,-4.93567 -1.268,-1.95809 -2.85434,-4.4678 -3.5252,-5.57714 l -1.21976,-2.01698 2.12051,-2.9996 c 1.16627,-1.64978 2.9013,-4.01911 3.8556,-5.26516 0.95431,-1.24606 3.30519,-4.4502 5.22417,-7.12032 1.91899,-2.67011 3.6914,-4.97294 3.93871,-5.11739 0.2473,-0.14444 0.36515,-0.39932 0.2619,-0.56638 -0.10325,-0.16707 -0.0405,-0.30376 0.13947,-0.30376 0.17996,0 0.79793,-0.69181 1.37326,-1.53734 0.57533,-0.84554 1.13874,-1.61017 1.25204,-1.69917 0.19611,-0.15406 5.53806,-7.68929 8.21908,-11.59362 1.40657,-2.04837 4.59491,-6.57518 8.24708,-11.70923 3.25187,-4.57131 10.44938,-14.36264 10.70606,-14.56428 0.1133,-0.089 0.55915,-0.67158 0.99077,-1.2946 0.89683,-1.29453 0.91795,-1.32254 2.33734,-3.10065 2.45568,-3.07628 6.3944,-8.56956 6.3944,-8.91819 0,-0.36378 -1.49801,-0.71605 -1.92438,-0.45254 -0.18861,0.11656 -1.03433,0.34135 -1.87939,0.49953 -0.84506,0.15817 -2.11904,0.4263 -2.83107,0.59584 -0.71203,0.16954 -1.94999,0.45701 -2.75103,0.63882 -1.92074,0.43596 -6.42175,1.64124 -10.03317,2.68669 -0.62303,0.18035 -1.49688,0.41015 -1.9419,0.51066 -0.44502,0.1005 -0.95477,0.2826 -1.13278,0.40466 -0.17801,0.12205 -0.97904,0.40799 -1.78008,0.63541 -0.80103,0.22742 -1.70933,0.54494 -2.01842,0.7056 -0.3091,0.16066 -0.84667,0.29211 -1.19459,0.29211 -0.34793,0 -0.72261,0.14564 -0.83262,0.32365 -0.11002,0.178 -0.59923,0.32365 -1.08715,0.32365 -0.48792,0 -1.05379,0.16667 -1.2575,0.37037 -0.61378,0.61379 -2.13734,-0.24788 -3.26366,-1.84581 -0.63994,-0.90789 -1.25886,-1.43742 -1.68006,-1.43742 -1.74139,0 -4.91787,2.59602 -5.36724,4.38645 -0.23907,0.95254 0.52109,4.7125 0.9048,4.47536 0.14366,-0.0888 0.26121,0.0476 0.26121,0.30311 0,0.64249 3.40306,3.72285 4.82272,4.3654 2.28639,1.03484 2.9454,1.6529 2.9377,2.75517 -0.004,0.5664 -0.29201,1.39393 -0.64011,1.83895 -0.3481,0.44502 -0.63614,0.91189 -0.6401,1.03749 -0.004,0.1256 -0.58977,1.06002 -1.3018,2.07648 -0.71203,1.01645 -1.2946,2.05102 -1.2946,2.29902 0,0.24801 -0.12909,0.37115 -0.28686,0.27364 -0.15777,-0.0975 -0.35758,0.0932 -0.44403,0.42377 -0.15539,0.5942 -9.01891,13.41659 -17.21111,24.8984 -2.32544,3.25924 -4.54538,6.39056 -4.93319,6.95849 -0.38782,0.56794 -1.0624,1.46526 -1.49907,1.99405 -0.68376,0.82799 -0.86613,0.90153 -1.314,0.52983 -0.28603,-0.23739 -2.36623,-3.21878 -4.62267,-6.62532 -2.25644,-3.40655 -4.91609,-7.40443 -5.91032,-8.88419 -0.994238,-1.47977 -1.953348,-2.92511 -2.131355,-3.21189 -0.920864,-1.48352 -8.026432,-12.19514 -8.296186,-12.50646 -0.172951,-0.1996 -0.9216,-1.30959 -1.663665,-2.46665 -1.703676,-2.65642 -1.668151,-2.61128 -3.795303,-4.82235 -1.593394,-1.65625 -2.713114,-2.42185 -4.207459,-2.87682 -0.871725,-0.26541 -4.63071,-0.29156 -5.971788,-0.0415 -5.426824,1.01172 -6.899122,1.44935 -10.414372,3.09559 -1.133776,0.53097 -2.542328,2.40244 -18.355337,24.3878 -5.287617,7.35156 -6.955785,9.62676 -11.983622,16.34436 -6.701489,8.95374 -7.607164,10.03317 -8.41815,10.03317 h -0.686471 v -25.40657 -25.40658 l 0.741773,-2.75103 c 1.862363,-6.90698 6.039013,-12.9951 11.50748,-16.77394 2.323571,-1.60564 11.10622,-6.54126 18.659386,-10.486104 4.163959,-2.17473 6.983994,-3.70391 15.373407,-8.3363 2.670118,-1.47436 6.092724,-3.3447 7.60579,-4.15632 1.513067,-0.81161 3.624888,-1.96152 4.692935,-2.55535 6.01218,-3.34275 10.565802,-5.36079 13.916979,-6.16764 1.437187,-0.34602 10.775118,-0.23058 12.460548,0.15404 4.07382,0.92968 9.40371,3.35635 15.85888,7.22046 1.86909,1.11884 3.83526,2.28477 4.36929,2.59094 0.53402,0.30617 2.20891,1.32377 3.72198,2.26134 1.51307,0.93757 3.26078,1.99203 3.88381,2.34325 0.62303,0.35122 1.27842,0.75319 1.45643,0.89326 0.178,0.14006 0.8334,0.54035 1.45642,0.88951 0.62303,0.34916 3.15677,1.82111 5.63053,3.27099 2.47377,1.44989 4.78157,2.63616 5.12845,2.63616 0.34688,0 1.01729,-0.27423 1.48979,-0.60941 0.4725,-0.33517 1.36884,-0.8983 1.99186,-1.25139 0.62303,-0.3531 2.34503,-1.38965 3.82666,-2.30345 1.48163,-0.91381 2.74959,-1.66146 2.8177,-1.66146 0.0681,0 0.89486,-0.45728 1.83723,-1.01617 0.94238,-0.55889 2.15034,-1.26841 2.68436,-1.5767 3.98126,-2.29843 7.00934,-4.09177 10.35682,-6.13366 4.75362,-2.89962 5.51018,-3.33749 8.57675,-4.96396 1.33506,-0.7081 2.56574,-1.41284 2.73484,-1.5661 0.51619,-0.4678 1.67005,-0.31336 3.0125,0.40319 l 1.2774,0.68184 0.39004,3.28288 c 0.21453,1.80559 0.52732,4.12033 0.69509,5.14388 0.7654,4.66953 0.93334,5.73003 1.25572,7.92944 0.47133,3.21569 0.80415,5.547644 1.92852,13.512414 0.94971,6.72752 1.11666,8.65083 0.79608,9.17132 -0.44108,0.71615 -3.5447,2.57545 -4.94394,2.9618 -0.74776,0.20647 -1.25144,0.19544 -1.52722,-0.0335 -0.56121,-0.46576 -2.2568,-3.54611 -5.84568,-10.61975 -1.66425,-3.28022 -3.17859,-6.14801 -3.3652,-6.37286 -0.7962,-0.95936 -1.12036,-0.50164 -9.99792,14.11699 -2.43225,4.00517 -5.58805,9.17549 -7.01289,11.48959 -6.57347,10.67608 -10.46781,17.08032 -10.46781,17.21431 0,0.0804 -0.41937,0.75574 -0.93194,1.50073 -0.95614,1.38971 -1.67498,2.61001 -3.3698,5.72059 -0.53344,0.97904 -1.07903,1.92572 -1.21244,2.10373 -0.30763,0.41048 -1.44122,2.41451 -2.62326,4.63756 -0.50439,0.94858 -1.21009,2.13621 -1.56822,2.63916 -0.35814,0.50296 -0.6544,1.03763 -0.65836,1.18816 -0.004,0.15053 -0.292,0.63779 -0.6401,1.08281 -0.3481,0.44502 -0.63615,1.0726 -0.64011,1.39462 -0.004,0.33129 -0.1571,0.49284 -0.35249,0.37208 -0.19059,-0.11779 -0.30106,-0.0176 -0.24658,0.22364 0.11477,0.50809 -1.35937,3.12666 -10.29828,18.29313 -1.48674,2.52253 -2.70317,4.67281 -2.70317,4.77839 0,0.34763 -1.4512,2.44035 -1.69511,2.44444 -0.13127,0.002 -0.62929,-0.61497 -1.1067,-1.37151 z m 7.98022,-34.71153 c 0,-0.089 0.0728,-0.16183 0.16183,-0.16183 0.089,0 0.16182,0.0728 0.16182,0.16183 0,0.089 -0.0728,0.16182 -0.16182,0.16182 -0.089,0 -0.16183,-0.0728 -0.16183,-0.16182 z"
       id="path3" /></g></svg>
